<svg id="Layer_1" data-name="Layer 1" xmlns="http://www.w3.org/2000/svg" viewBox="0 0 27.26 27.26"><defs><style>.cls-1{fill:none;stroke:#fff;stroke-miterlimit:10;}.cls-2{fill:#fff;}</style></defs><circle class="cls-1" cx="13.63" cy="13.63" r="13.13"/><path class="cls-2" d="M9.11,6.38h1.26a.3.3,0,0,1,.34.32v9.44a3.09,3.09,0,0,1-.82,2.28,3.08,3.08,0,0,1-2.28.83h-2a3.09,3.09,0,0,1-2.3-.83,3,3,0,0,1-.82-2.28v-1.8c0-.22.12-.34.36-.34H4.11a.31.31,0,0,1,.34.34v1.72a1.29,1.29,0,0,0,1.44,1.48H7.31a1.29,1.29,0,0,0,1.44-1.48V6.72C8.75,6.5,8.87,6.38,9.11,6.38Z" transform="translate(0.5 0.5)"/><path class="cls-2" d="M19.31,19.25H17a2.84,2.84,0,0,1-3.1-3.11V9.48a3.11,3.11,0,0,1,.81-2.29A3.09,3.09,0,0,1,17,6.38h2.32a3.07,3.07,0,0,1,2.27.81,3.08,3.08,0,0,1,.83,2.29v1a.32.32,0,0,1-.37.36H20.79c-.23,0-.34-.12-.34-.36V9.56A1.3,1.3,0,0,0,19,8.08H17.27a1.29,1.29,0,0,0-1.44,1.48v6.5a1.29,1.29,0,0,0,1.44,1.48H19a1.3,1.3,0,0,0,1.45-1.48v-.88a.31.31,0,0,1,.34-.35H22c.25,0,.37.12.37.35v1a2.87,2.87,0,0,1-3.1,3.11Z" transform="translate(0.5 0.5)"/></svg>